# xmcd
#
# Track frame offsets: 
#        150
#        13990
#        26445
#        37115
#        51715
#        64215
#        78240
#        97555
#        108937
#        122585
#        141480
#        147652
#        165935
#        176015
#        186497
#
# Disc length: 2705 seconds
#
# Revision: 0
# Processed by: cddbd v1.5.2PL0 Copyright (c) Steve Scherf et al.
# Submitted via: ExactAudioCopy v0.99pb4
#
DISCID=d50a8f0f
DTITLE=Radio Sweethearts - Lonesome Blue
DYEAR=2000
DGENRE=Country
TTITLE0=Lonesome Blue
TTITLE1=Open Up Your Heart
TTITLE2=Bummin' Around
TTITLE3=Love To Give You
TTITLE4=Heart On The Line
TTITLE5=Look Homeward Angel
TTITLE6=Living Without You
TTITLE7=All I See Is You
TTITLE8=I Must Have Been Out Of My Mind
TTITLE9=Take Me Back To San Francisco
TTITLE10=Sweetheart Hoedown
TTITLE11=Tryin' To Forget About You
TTITLE12=Let Me Be Your Man Tonight
TTITLE13=Drinkin' 'Bout You All Night
TTITLE14=Closing Time
EXTD=
EXTT0=
EXTT1=
EXTT2=
EXTT3=
EXTT4=
EXTT5=
EXTT6=
EXTT7=
EXTT8=
EXTT9=
EXTT10=
EXTT11=
EXTT12=
EXTT13=
EXTT14=
PLAYORDER=
